<mxfile host="app.diagrams.net" modified="2023-02-23T13:39:29.816Z" agent="5.0 (Windows)" etag="5nEybkSXG0QVlGSOpd-l" version="20.8.23" type="github">
  <diagram id="C5RBs43oDa-KdzZeNtuy" name="Page-1">
    <mxGraphModel dx="1434" dy="782" grid="1" gridSize="10" guides="1" tooltips="1" connect="1" arrows="1" fold="1" page="1" pageScale="1" pageWidth="827" pageHeight="1169" math="0" shadow="0">
      <root>
        <mxCell id="WIyWlLk6GJQsqaUBKTNV-0" />
        <mxCell id="WIyWlLk6GJQsqaUBKTNV-1" parent="WIyWlLk6GJQsqaUBKTNV-0" />
        <mxCell id="cYfwtdGLEOaVFBj8zQAc-2" style="edgeStyle=orthogonalEdgeStyle;rounded=0;orthogonalLoop=1;jettySize=auto;html=1;" parent="WIyWlLk6GJQsqaUBKTNV-1" source="cYfwtdGLEOaVFBj8zQAc-0" target="cYfwtdGLEOaVFBj8zQAc-1" edge="1">
          <mxGeometry relative="1" as="geometry" />
        </mxCell>
        <mxCell id="cYfwtdGLEOaVFBj8zQAc-0" value="START" style="ellipse;whiteSpace=wrap;html=1;" parent="WIyWlLk6GJQsqaUBKTNV-1" vertex="1">
          <mxGeometry x="340" y="20" width="120" height="80" as="geometry" />
        </mxCell>
        <mxCell id="cYfwtdGLEOaVFBj8zQAc-4" style="edgeStyle=orthogonalEdgeStyle;rounded=0;orthogonalLoop=1;jettySize=auto;html=1;exitX=0.5;exitY=1;exitDx=0;exitDy=0;entryX=0.5;entryY=0;entryDx=0;entryDy=0;" parent="WIyWlLk6GJQsqaUBKTNV-1" source="cYfwtdGLEOaVFBj8zQAc-1" target="cYfwtdGLEOaVFBj8zQAc-3" edge="1">
          <mxGeometry relative="1" as="geometry" />
        </mxCell>
        <mxCell id="cYfwtdGLEOaVFBj8zQAc-1" value="&lt;div&gt;i=1&lt;/div&gt;&lt;div&gt;a=[1,2,4,6]&lt;br&gt;&lt;/div&gt;" style="rounded=0;whiteSpace=wrap;html=1;" parent="WIyWlLk6GJQsqaUBKTNV-1" vertex="1">
          <mxGeometry x="340" y="190" width="120" height="60" as="geometry" />
        </mxCell>
        <mxCell id="cYfwtdGLEOaVFBj8zQAc-7" style="edgeStyle=orthogonalEdgeStyle;rounded=0;orthogonalLoop=1;jettySize=auto;html=1;exitX=0;exitY=0.5;exitDx=0;exitDy=0;entryX=1;entryY=0.5;entryDx=0;entryDy=0;" parent="WIyWlLk6GJQsqaUBKTNV-1" source="cYfwtdGLEOaVFBj8zQAc-3" target="cYfwtdGLEOaVFBj8zQAc-5" edge="1">
          <mxGeometry relative="1" as="geometry" />
        </mxCell>
        <mxCell id="cYfwtdGLEOaVFBj8zQAc-8" style="edgeStyle=orthogonalEdgeStyle;rounded=0;orthogonalLoop=1;jettySize=auto;html=1;entryX=0;entryY=0.5;entryDx=0;entryDy=0;entryPerimeter=0;" parent="WIyWlLk6GJQsqaUBKTNV-1" source="cYfwtdGLEOaVFBj8zQAc-3" target="cYfwtdGLEOaVFBj8zQAc-6" edge="1">
          <mxGeometry relative="1" as="geometry" />
        </mxCell>
        <mxCell id="cYfwtdGLEOaVFBj8zQAc-3" value="i&amp;lt;a" style="rhombus;whiteSpace=wrap;html=1;" parent="WIyWlLk6GJQsqaUBKTNV-1" vertex="1">
          <mxGeometry x="360" y="300" width="80" height="80" as="geometry" />
        </mxCell>
        <mxCell id="cYfwtdGLEOaVFBj8zQAc-10" style="edgeStyle=orthogonalEdgeStyle;rounded=0;orthogonalLoop=1;jettySize=auto;html=1;exitX=1;exitY=0;exitDx=0;exitDy=0;entryX=0.35;entryY=0.15;entryDx=0;entryDy=0;entryPerimeter=0;" parent="WIyWlLk6GJQsqaUBKTNV-1" source="cYfwtdGLEOaVFBj8zQAc-5" target="cYfwtdGLEOaVFBj8zQAc-3" edge="1">
          <mxGeometry relative="1" as="geometry" />
        </mxCell>
        <mxCell id="cYfwtdGLEOaVFBj8zQAc-5" value="a*i" style="rounded=0;whiteSpace=wrap;html=1;" parent="WIyWlLk6GJQsqaUBKTNV-1" vertex="1">
          <mxGeometry x="170" y="310" width="120" height="60" as="geometry" />
        </mxCell>
        <mxCell id="cYfwtdGLEOaVFBj8zQAc-12" style="edgeStyle=orthogonalEdgeStyle;rounded=0;orthogonalLoop=1;jettySize=auto;html=1;entryX=0.5;entryY=0;entryDx=0;entryDy=0;" parent="WIyWlLk6GJQsqaUBKTNV-1" source="cYfwtdGLEOaVFBj8zQAc-6" target="cYfwtdGLEOaVFBj8zQAc-11" edge="1">
          <mxGeometry relative="1" as="geometry" />
        </mxCell>
        <mxCell id="cYfwtdGLEOaVFBj8zQAc-6" value="wyswietl iloczyn" style="rounded=0;whiteSpace=wrap;html=1;" parent="WIyWlLk6GJQsqaUBKTNV-1" vertex="1">
          <mxGeometry x="510" y="310" width="120" height="60" as="geometry" />
        </mxCell>
        <mxCell id="cYfwtdGLEOaVFBj8zQAc-11" value="STOP" style="ellipse;whiteSpace=wrap;html=1;" parent="WIyWlLk6GJQsqaUBKTNV-1" vertex="1">
          <mxGeometry x="510" y="450" width="120" height="80" as="geometry" />
        </mxCell>
      </root>
    </mxGraphModel>
  </diagram>
</mxfile>
